<svg id="Layer_1" xmlns="http://www.w3.org/2000/svg" viewBox="0 0 32 32">
  <path fill="#191919" d="M3.1 8.9V7c0-.5.4-1 1-1H6c.2 0 .3.2.3.4-.1 1.7-1 2.6-2.8 2.8-.2.1-.4-.1-.4-.3zm.7 6.3c5.3-.3 8.4-3.8 8.4-8.4 0-.4-.3-.7-.7-.7s-.7.3-.7.7c0 3.9-2.9 6.7-7.2 7-.4 0-.6.3-.6.7.1.4.4.7.8.7-.1 0-.1 0 0 0zm0-2.9c3.5-.2 5.5-2.5 5.5-5.5 0-.4-.3-.7-.7-.7s-.7.3-.7.7c-.1 2-1.7 3.9-4.3 4.2-.3 0-.6.3-.6.7.1.4.3.6.8.6-.1 0-.1 0 0 0zm25-4.6v13.8c0 .9-.7 1.6-1.6 1.6H16.8V25H21c.5 0 .9.4.9.9s-.4.9-.9.9H10.8c-.5 0-.9-.4-.9-.9s.4-.9.9-.9H15v-1.9H4.6c-.9 0-1.6-.7-1.6-1.6v-4.1-.2c.1-.3.3-.5.6-.5 6.3-.4 10-4.1 10-9.9 0-.4.3-.7.7-.7h12.9c.9 0 1.6.8 1.6 1.6zm-1.8.9c0-.4-.3-.6-.6-.6H14.9c-.4 5.8-4.2 9.3-10.1 10v2.8c0 .4.3.6.6.6h21c.4 0 .6-.3.6-.6V8.6z"/>  
</svg>
